{
  "accessors": [
    {
      "bufferView": 1,
      "componentType": 5126,
      "count": 65532,
      "max": [
        62.589298248291016,
        73.02970123291016,
        94.91110229492188
      ],
      "min": [
        -9.796899795532227,
        -100.02799987792969,
        -23.804000854492188
      ],
      "type": "VEC3"
    },
    {
      "bufferView": 1,
      "byteOffset": 786384,
      "componentType": 5126,
      "count": 65532,
      "type": "VEC3"
    },
    {
      "bufferView": 0,
      "componentType": 5125,
      "count": 364677,
      "type": "SCALAR"
    },
    {
      "bufferView": 1,
      "byteOffset": 1572768,
      "componentType": 5126,
      "count": 32579,
      "max": [
        61.36149978637695,
        32.136199951171875,
        94.80449676513672
      ],
      "min": [
        -8.54697036743164,
        -100.02799987792969,
        -24.28420066833496
      ],
      "type": "VEC3"
    },
    {
      "bufferView": 1,
      "byteOffset": 1963716,
      "componentType": 5126,
      "count": 32579,
      "type": "VEC3"
    },
    {
      "bufferView": 0,
      "byteOffset": 1458708,
      "componentType": 5125,
      "count": 147249,
      "type": "SCALAR"
    },
    {
      "bufferView": 1,
      "byteOffset": 2354664,
      "componentType": 5126,
      "count": 20910,
      "max": [
        46.935298919677734,
        33.47829818725586,
        47.472801208496094
      ],
      "min": [
        -54.61909866333008,
        -83.02649688720703,
        -37.86629867553711
      ],
      "type": "VEC3"
    },
    {
      "bufferView": 1,
      "byteOffset": 2605584,
      "componentType": 5126,
      "count": 20910,
      "type": "VEC3"
    },
    {
      "bufferView": 0,
      "byteOffset": 2047704,
      "componentType": 5125,
      "count": 170310,
      "type": "SCALAR"
    },
    {
      "bufferView": 1,
      "byteOffset": 2856504,
      "componentType": 5126,
      "count": 65532,
      "max": [
        1.085279941558838,
        71.79019927978516,
        93.26730346679688
      ],
      "min": [
        -67.76629638671875,
        -104.95899963378906,
        -18.871700286865234
      ],
      "type": "VEC3"
    },
    {
      "bufferView": 1,
      "byteOffset": 3642888,
      "componentType": 5126,
      "count": 65532,
      "type": "VEC3"
    },
    {
      "bufferView": 0,
      "byteOffset": 2728944,
      "componentType": 5125,
      "count": 364062,
      "type": "SCALAR"
    },
    {
      "bufferView": 1,
      "byteOffset": 4429272,
      "componentType": 5126,
      "count": 32283,
      "max": [
        -0.3098999857902527,
        39.94449996948242,
        93.43800354003906
      ],
      "min": [
        -69.39739990234375,
        -104.77300262451172,
        -26.348899841308594
      ],
      "type": "VEC3"
    },
    {
      "bufferView": 1,
      "byteOffset": 4816668,
      "componentType": 5126,
      "count": 32283,
      "type": "VEC3"
    },
    {
      "bufferView": 0,
      "byteOffset": 4185192,
      "componentType": 5125,
      "count": 143340,
      "type": "SCALAR"
    }
  ],
  "asset": {
    "generator": "fab-model-conversion",
    "version": "2.0"
  },
  "bufferViews": [
    {
      "buffer": 0,
      "byteLength": 4758552,
      "target": 34963
    },
    {
      "buffer": 0,
      "byteLength": 5204064,
      "byteOffset": 4758552,
      "byteStride": 12,
      "target": 34962
    }
  ],
  "buffers": [
    {
      "byteLength": 9962616,
      "uri": "scene.bin"
    }
  ],
  "extensionsUsed": [
    "KHR_materials_specular"
  ],
  "materials": [
    {
      "alphaMode": "BLEND",
      "doubleSided": true,
      "extensions": {
        "KHR_materials_specular": {
          "specularFactor": 0.44
        }
      },
      "name": "Mat1",
      "pbrMetallicRoughness": {
        "baseColorFactor": [
          0.800000011920929,
          0.800000011920929,
          0.800000011920929,
          0.06
        ],
        "roughnessFactor": 0.23
      }
    },
    {
      "doubleSided": true,
      "name": "Mat3",
      "pbrMetallicRoughness": {
        "baseColorFactor": [
          0.800000011920929,
          0.800000011920929,
          0.800000011920929,
          1.0
        ],
        "metallicFactor": 0.08,
        "roughnessFactor": 0.49
      }
    },
    {
      "doubleSided": true,
      "name": "Mat2",
      "pbrMetallicRoughness": {
        "baseColorFactor": [
          0.800000011920929,
          0.800000011920929,
          0.800000011920929,
          1.0
        ],
        "metallicFactor": 0.49,
        "roughnessFactor": 0.64
      }
    }
  ],
  "meshes": [
    {
      "name": "Brain.001_0",
      "primitives": [
        {
          "attributes": {
            "NORMAL": 1,
            "POSITION": 0
          },
          "indices": 2,
          "material": 2,
          "mode": 4
        }
      ]
    },
    {
      "name": "Brain.001_0",
      "primitives": [
        {
          "attributes": {
            "NORMAL": 4,
            "POSITION": 3
          },
          "indices": 5,
          "material": 2,
          "mode": 4
        }
      ]
    },
    {
      "name": "Brain.002_0",
      "primitives": [
        {
          "attributes": {
            "NORMAL": 7,
            "POSITION": 6
          },
          "indices": 8,
          "material": 1,
          "mode": 4
        }
      ]
    },
    {
      "name": "Brain.003_0",
      "primitives": [
        {
          "attributes": {
            "NORMAL": 10,
            "POSITION": 9
          },
          "indices": 11,
          "material": 0,
          "mode": 4
        }
      ]
    },
    {
      "name": "Brain.003_0",
      "primitives": [
        {
          "attributes": {
            "NORMAL": 13,
            "POSITION": 12
          },
          "indices": 14,
          "material": 0,
          "mode": 4
        }
      ]
    }
  ],
  "nodes": [
    {
      "children": [
        1
      ],
      "matrix": [
        1.0,
        0.0,
        0.0,
        0.0,
        0.0,
        2.220446049250313e-16,
        -1.0,
        0.0,
        0.0,
        1.0,
        2.220446049250313e-16,
        0.0,
        0.0,
        0.0,
        0.0,
        1.0
      ],
      "name": "Sketchfab_model"
    },
    {
      "children": [
        2,
        5,
        7
      ],
      "name": "Root"
    },
    {
      "children": [
        3,
        4
      ],
      "matrix": [
        1.0,
        0.0,
        0.0,
        0.0,
        0.0,
        -0.0,
        1.0,
        0.0,
        0.0,
        -1.0,
        -0.0,
        0.0,
        2.8301499999999997,
        0.0,
        0.0,
        1.0
      ],
      "name": "Brain.001"
    },
    {
      "mesh": 0,
      "name": "Brain.001_0"
    },
    {
      "mesh": 1,
      "name": "Brain.001_0"
    },
    {
      "children": [
        6
      ],
      "matrix": [
        1.0,
        0.0,
        0.0,
        0.0,
        0.0,
        -0.0,
        1.0,
        0.0,
        0.0,
        -1.0,
        -0.0,
        0.0,
        2.8301499999999997,
        0.0,
        0.0,
        1.0
      ],
      "name": "Brain.002"
    },
    {
      "mesh": 2,
      "name": "Brain.002_0"
    },
    {
      "children": [
        8,
        9
      ],
      "matrix": [
        1.0,
        0.0,
        0.0,
        0.0,
        0.0,
        -0.0,
        1.0,
        0.0,
        0.0,
        -1.0,
        -0.0,
        0.0,
        2.8301499999999997,
        0.0,
        0.0,
        1.0
      ],
      "name": "Brain.003"
    },
    {
      "mesh": 3,
      "name": "Brain.003_0"
    },
    {
      "mesh": 4,
      "name": "Brain.003_0"
    }
  ],
  "scene": 0,
  "scenes": [
    {
      "name": "Sketchfab_Scene",
      "nodes": [
        0
      ]
    }
  ]
}
